<?xml version="1.0" standalone="no"?>
<!DOCTYPE svg PUBLIC "-//W3C//DTD SVG 20010904//EN"
 "http://www.w3.org/TR/2001/REC-SVG-20010904/DTD/svg10.dtd">
<svg version="1.0" xmlns="http://www.w3.org/2000/svg"
 width="48.000000pt" height="48.000000pt" viewBox="0 0 48.000000 48.000000"
 preserveAspectRatio="xMidYMid meet">
<metadata>
Created by potrace 1.16, written by Peter Selinger 2001-2019
</metadata>
<g transform="translate(0.000000,48.000000) scale(0.100000,-0.100000)"
fill="#000000" stroke="none">
<path d="M133 414 c-62 -37 -93 -95 -93 -174 0 -50 5 -73 25 -107 14 -23 30
-43 34 -43 5 0 16 11 25 25 53 81 165 85 225 8 26 -32 16 -46 -45 -68 -21 -8
-30 -14 -20 -15 35 0 105 49 131 94 35 60 35 152 0 212 -37 63 -95 94 -176 94
-51 0 -73 -5 -106 -26z m154 -59 c26 -18 38 -67 23 -94 -28 -53 -88 -63 -130
-21 -64 64 33 167 107 115z"/>
</g>
</svg>
